<svg width="21" height="21" viewBox="0 0 21 21" fill="none" xmlns="http://www.w3.org/2000/svg">
<path d="M12.7518 10.8665L17.4651 6.15188C17.5924 6.02889 17.694 5.88176 17.7639 5.71909C17.8338 5.55642 17.8706 5.38146 17.8721 5.20442C17.8736 5.02738 17.8399 4.8518 17.7729 4.68794C17.7058 4.52408 17.6068 4.37521 17.4816 4.25002C17.3564 4.12483 17.2076 4.02583 17.0437 3.95879C16.8798 3.89174 16.7043 3.85801 16.5272 3.85955C16.3502 3.86109 16.1752 3.89787 16.0126 3.96775C15.8499 4.03762 15.7028 4.1392 15.5798 4.26655L10.8651 8.97988L6.15176 4.26655C6.02876 4.1392 5.88164 4.03762 5.71897 3.96775C5.55629 3.89787 5.38133 3.86109 5.20429 3.85955C5.02726 3.85801 4.85168 3.89174 4.68782 3.95879C4.52396 4.02583 4.37509 4.12483 4.2499 4.25002C4.12471 4.37521 4.0257 4.52408 3.95866 4.68794C3.89162 4.8518 3.85789 5.02738 3.85943 5.20442C3.86096 5.38146 3.89775 5.55642 3.96762 5.71909C4.0375 5.88176 4.13908 6.02889 4.26643 6.15188L8.97976 10.8652L4.26643 15.5799C4.13908 15.7029 4.0375 15.85 3.96762 16.0127C3.89775 16.1753 3.86096 16.3503 3.85943 16.5273C3.85789 16.7044 3.89162 16.88 3.95866 17.0438C4.0257 17.2077 4.12471 17.3566 4.2499 17.4817C4.37509 17.6069 4.52396 17.7059 4.68782 17.773C4.85168 17.84 5.02726 17.8738 5.20429 17.8722C5.38133 17.8707 5.55629 17.8339 5.71897 17.764C5.88164 17.6941 6.02876 17.5926 6.15176 17.4652L10.8651 12.7519L15.5798 17.4652C15.7028 17.5926 15.8499 17.6941 16.0126 17.764C16.1752 17.8339 16.3502 17.8707 16.5272 17.8722C16.7043 17.8738 16.8798 17.84 17.0437 17.773C17.2076 17.7059 17.3564 17.6069 17.4816 17.4817C17.6068 17.3566 17.7058 17.2077 17.7729 17.0438C17.8399 16.88 17.8736 16.7044 17.8721 16.5273C17.8706 16.3503 17.8338 16.1753 17.7639 16.0127C17.694 15.85 17.5924 15.7029 17.4651 15.5799L12.7518 10.8652V10.8665Z" fill="#6523D1"/>
<path d="M12.1996 9.53271L12.1987 2.86611C12.2018 2.68909 12.1696 2.51323 12.1039 2.34879C12.0383 2.18436 11.9406 2.03463 11.8165 1.90836C11.6924 1.78208 11.5444 1.68179 11.3811 1.61333C11.2179 1.54487 11.0426 1.50961 10.8656 1.50961C10.6885 1.50961 10.5132 1.54487 10.35 1.61333C10.1867 1.68179 10.0387 1.78208 9.91459 1.90836C9.79049 2.03463 9.69279 2.18435 9.62717 2.34879C9.56156 2.51323 9.52935 2.68909 9.53242 2.86611L9.53148 9.53271L2.86582 9.53271C2.6888 9.52964 2.51294 9.56184 2.3485 9.62746C2.18407 9.69307 2.03434 9.79078 1.90807 9.91488C1.78179 10.039 1.6815 10.187 1.61304 10.3503C1.54458 10.5135 1.50932 10.6888 1.50932 10.8658C1.50932 11.0429 1.54458 11.2182 1.61304 11.3814C1.6815 11.5447 1.78179 11.6927 1.90807 11.8168C2.03434 11.9409 2.18407 12.0386 2.3485 12.1042C2.51294 12.1698 2.6888 12.2021 2.86582 12.199L9.53148 12.199L9.53242 18.8656C9.52935 19.0426 9.56156 19.2185 9.62717 19.3829C9.69279 19.5473 9.79049 19.6971 9.91459 19.8233C10.0387 19.9496 10.1867 20.0499 10.35 20.1184C10.5132 20.1868 10.6885 20.2221 10.8656 20.2221C11.0426 20.2221 11.2179 20.1868 11.3811 20.1184C11.5444 20.0499 11.6924 19.9496 11.8165 19.8233C11.9406 19.6971 12.0383 19.5473 12.1039 19.3829C12.1696 19.2185 12.2018 19.0426 12.1987 18.8656L12.1987 12.1999L18.8653 12.199C19.0423 12.2021 19.2182 12.1698 19.3826 12.1042C19.547 12.0386 19.6968 11.9409 19.823 11.8168C19.9493 11.6927 20.0496 11.5447 20.1181 11.3814C20.1865 11.2182 20.2218 11.0429 20.2218 10.8658C20.2218 10.6888 20.1865 10.5135 20.1181 10.3503C20.0496 10.187 19.9493 10.039 19.823 9.91488C19.6968 9.79078 19.547 9.69307 19.3826 9.62746C19.2182 9.56184 19.0423 9.52964 18.8653 9.53271L12.1987 9.53177L12.1996 9.53271Z" fill="#6523D1"/>
</svg>
