<svg width="51" height="41" viewBox="0 0 51 41" fill="none" xmlns="http://www.w3.org/2000/svg">
<g filter="url(#filter0_d_60_408)">
<path d="M18.1902 25.7721L17.1246 26.8281C16.9825 26.9689 16.8191 27.0393 16.6344 27.0393C16.4497 27.0393 16.2863 26.9689 16.1443 26.8281L6.21311 16.9858C6.07104 16.845 6 16.683 6 16.5C6 16.317 6.07104 16.155 6.21311 16.0142L16.1443 6.17188C16.2863 6.03107 16.4497 5.96067 16.6344 5.96067C16.8191 5.96067 16.9825 6.03107 17.1246 6.17188L18.1902 7.22793C18.3322 7.36873 18.4033 7.53066 18.4033 7.71371C18.4033 7.89675 18.3322 8.05868 18.1902 8.19949L9.81475 16.5L18.1902 24.8005C18.3322 24.9413 18.4033 25.1032 18.4033 25.2863C18.4033 25.4693 18.3322 25.6313 18.1902 25.7721ZM30.7852 3.23608L22.8361 30.5032C22.7792 30.6862 22.6691 30.8235 22.5057 30.915C22.3423 31.0065 22.1754 31.0241 22.0049 30.9678L20.6836 30.6088C20.4989 30.5524 20.3604 30.4433 20.268 30.2814C20.1757 30.1195 20.1579 29.947 20.2148 29.7639L28.1639 2.49684C28.2208 2.3138 28.3309 2.17651 28.4943 2.08499C28.6577 1.99346 28.8246 1.97586 28.9951 2.03218L30.3164 2.39124C30.5011 2.44756 30.6396 2.55669 30.732 2.71861C30.8243 2.88054 30.8421 3.05303 30.7852 3.23608ZM44.7869 16.9858L34.8557 26.8281C34.7137 26.9689 34.5503 27.0393 34.3656 27.0393C34.1809 27.0393 34.0175 26.9689 33.8754 26.8281L32.8098 25.7721C32.6678 25.6313 32.5967 25.4693 32.5967 25.2863C32.5967 25.1032 32.6678 24.9413 32.8098 24.8005L41.1852 16.5L32.8098 8.19949C32.6678 8.05868 32.5967 7.89675 32.5967 7.71371C32.5967 7.53066 32.6678 7.36873 32.8098 7.22793L33.8754 6.17188C34.0175 6.03107 34.1809 5.96067 34.3656 5.96067C34.5503 5.96067 34.7137 6.03107 34.8557 6.17188L44.7869 16.0142C44.929 16.155 45 16.317 45 16.5C45 16.683 44.929 16.845 44.7869 16.9858Z" fill="url(#paint0_linear_60_408)"/>
</g>
<defs>
<filter id="filter0_d_60_408" x="0" y="0" width="51" height="41" filterUnits="userSpaceOnUse" color-interpolation-filters="sRGB">
<feFlood flood-opacity="0" result="BackgroundImageFix"/>
<feColorMatrix in="SourceAlpha" type="matrix" values="0 0 0 0 0 0 0 0 0 0 0 0 0 0 0 0 0 0 127 0" result="hardAlpha"/>
<feOffset dy="4"/>
<feGaussianBlur stdDeviation="3"/>
<feComposite in2="hardAlpha" operator="out"/>
<feColorMatrix type="matrix" values="0 0 0 0 0.835294 0 0 0 0 0.494118 0 0 0 0 0.921569 0 0 0 0.3 0"/>
<feBlend mode="normal" in2="BackgroundImageFix" result="effect1_dropShadow_60_408"/>
<feBlend mode="normal" in="SourceGraphic" in2="effect1_dropShadow_60_408" result="shape"/>
</filter>
<linearGradient id="paint0_linear_60_408" x1="14.97" y1="7.09459" x2="36.122" y2="26.1954" gradientUnits="userSpaceOnUse">
<stop stop-color="#6523D1"/>
<stop offset="1" stop-color="#00A3FF"/>
</linearGradient>
</defs>
</svg>
