<svg width="49" height="53" viewBox="0 0 49 53" fill="none" xmlns="http://www.w3.org/2000/svg">
<g filter="url(#filter0_d_60_415)">
<path d="M8.41367 3.1955H7.62573V41.8045H8.41367V3.1955Z" fill="#D86666"/>
<path d="M25.118 5.55933C21.0444 12.8872 17.5223 20.475 14.5439 28.315C14.2996 28.9532 14.0869 29.5284 13.9056 30.0248C13.4329 31.2934 13.165 32.042 13.0862 32.168C13.2674 31.514 13.4565 30.8206 13.6535 30.1194C13.7953 29.623 13.9372 29.1187 14.079 28.6065C15.1821 24.7456 16.6398 20.6247 17.5932 17.8275C19.0233 13.8957 20.7063 10.0805 22.6486 6.38115C22.9141 5.87529 23.4436 5.55933 24.0157 5.55933H25.118Z" fill="#942D32"/>
<path d="M18.2786 26.9125C19.3187 25.0135 26.0871 11.1931 26.5441 10.35C26.6465 10.153 26.7726 10.0269 26.9144 10.0269C27.0563 10.0269 27.2139 10.1451 27.3872 10.4367C27.7024 10.9646 30.6808 17.1263 31.6421 19.2852C30.6965 19.7659 20.4376 25.2105 18.2786 26.9125ZM41.381 38.6291C41.3889 38.6291 41.3889 38.6291 41.3968 38.6212C41.8695 38.2746 42.1138 37.6521 41.9483 37.0454C41.8301 36.6199 41.7119 36.2023 41.6331 36.0053C41.5543 35.7925 41.2943 34.7997 40.9004 33.3342C40.4197 31.9238 39.9076 30.5055 39.3718 29.0872C38.702 27.338 38.0007 25.5966 37.2916 23.9025C36.4958 22.0036 35.6921 20.1598 34.9041 18.4106C32.1306 12.2726 29.5777 7.32431 28.6558 5.55933H25.1179C21.0443 12.8872 17.5222 20.475 14.5438 28.315C14.2995 28.9532 14.0868 29.5284 13.9056 30.0248C13.4328 31.2855 13.1649 32.042 13.0861 32.168L12.9837 32.5699C12.4794 34.4058 12.0697 36.0053 11.8096 37.1399C11.6836 37.6915 11.8884 38.243 12.2982 38.5897C12.6527 38.7473 13.0782 38.9049 13.5668 39.031C14.0395 37.4393 15.6312 33.4051 16.0409 32.3256L16.0803 32.2389V32.2311C16.3561 31.4825 16.8288 30.3794 17.2307 29.2999C22.6202 27.141 28.1515 25.4548 33.8325 24.2571C34.7859 26.3058 35.8181 28.3938 36.2042 29.2448C36.22 29.2684 36.2279 29.2842 36.2358 29.3078C36.2436 29.3236 36.2594 29.3472 36.2594 29.363C36.2673 29.3787 36.2752 29.4024 36.283 29.4181C36.3067 29.4654 36.3224 29.5048 36.3382 29.5363C36.7637 30.5134 38.7729 34.6028 39.3796 36.0447C39.6475 36.675 39.8918 37.3684 40.0888 37.9436C40.1124 38.0067 40.1361 38.0697 40.1518 38.1327C40.2542 38.44 40.3409 38.7158 40.404 38.9049C40.404 38.9207 40.4118 38.9364 40.4118 38.9443H40.4197L41.381 38.6291Z" fill="url(#paint0_linear_60_415)"/>
<path d="M40.9004 33.3342C40.4198 31.9238 39.9076 30.5055 39.3718 29.0872C38.7021 27.338 38.0008 25.5966 37.2916 23.9025C36.4958 22.0036 35.6921 20.1598 34.9042 18.4106C32.1306 12.2726 29.5777 7.32431 28.6479 5.55933H29.387C30.0694 5.55933 30.706 5.92335 31.0393 6.51904C32.4324 9.0105 33.6522 11.5839 34.6993 14.2503C35.1169 15.2589 35.6685 16.488 36.1255 17.8512C36.7401 19.6713 37.6699 21.7278 38.2687 23.7765C38.7966 25.5966 39.3009 27.4089 39.75 29.0635C40.1991 30.6867 40.5931 32.1601 40.9004 33.3342Z" fill="#E02B2B"/>
<path d="M31.6421 19.2851C30.799 19.7579 30.3577 20.0416 29.3964 20.538C28.4746 17.9772 27.6551 15.7552 27.4345 15.2273C27.1193 14.4787 26.6229 14.5496 26.355 15.3218C24.8816 19.4821 23.7548 22.2005 23.1245 23.934C21.0443 25.0844 19.7836 25.9984 18.2786 26.9203H18.2708C19.3108 25.0292 26.0871 11.1615 26.5441 10.3499L26.5362 10.342C26.7411 9.99534 26.8514 9.85352 26.946 9.85352C27.0799 9.85352 27.1666 10.1135 27.3872 10.4366C27.7418 10.9645 30.6887 17.1498 31.6421 19.2851Z" fill="url(#paint1_linear_60_415)"/>
<path d="M36.2122 29.2447C35.0381 29.3472 34.1714 29.4811 32.627 29.6466L32.5404 29.6545C29.365 30.009 25.441 30.5212 20.9419 31.2776L20.4849 31.3485C18.9327 31.6164 17.7586 31.908 16.0803 32.231C16.364 31.4746 16.8289 30.3636 17.2307 29.3078V29.2999C22.5887 27.0543 28.1279 25.3681 33.8326 24.2571C34.786 26.3057 35.8182 28.3938 36.2122 29.2447Z" fill="url(#paint2_linear_60_415)"/>
<path d="M20.485 31.3564C20.3117 31.7977 20.1462 32.2389 19.9728 32.6723C19.8389 33.019 19.7049 33.3657 19.571 33.7045C19.0431 35.107 18.5624 36.3992 18.1685 37.4314C18.0897 37.6678 18.003 37.8884 17.9321 38.0933C17.7902 38.4636 17.6721 38.7867 17.5696 39.0546C16.7029 39.2752 15.9386 39.3067 15.3713 39.291C15.3634 39.2988 15.3555 39.2988 15.3555 39.291C15.3004 39.291 15.2373 39.2831 15.1822 39.2831L14.9143 39.2594H14.8906C14.8434 39.2594 14.7961 39.2594 14.7567 39.2516C14.7488 39.2516 14.733 39.2516 14.7252 39.2437C14.3076 39.2043 13.9215 39.1255 13.5669 39.0309C14.0397 37.4393 15.6313 33.4051 16.041 32.3256L16.0804 32.2389C17.7587 31.908 18.9328 31.6164 20.485 31.3564Z" fill="url(#paint3_linear_60_415)"/>
<path d="M40.4197 38.9443H40.4118C39.8208 39.0862 39.3875 39.1019 38.5365 39.1177C37.5043 39.1492 36.8976 39.1571 36.2436 38.9759C36.086 38.5425 35.9048 38.0382 35.692 37.4945C35.6842 37.4867 35.6842 37.4709 35.6842 37.463C35.4872 36.9272 35.2587 36.3363 35.0223 35.7217C34.8647 35.3198 34.6992 34.8943 34.5259 34.4531C34.1871 33.5864 33.8246 32.6723 33.4622 31.7426C33.1864 31.0492 32.9106 30.3479 32.627 29.6467C34.1713 29.4733 35.0302 29.3394 36.2042 29.2448H36.2121C36.2278 29.2842 36.2515 29.3315 36.2594 29.363C36.2672 29.3788 36.2751 29.4024 36.283 29.4182C36.3066 29.4654 36.3224 29.5048 36.3381 29.5363C36.7636 30.5134 38.7729 34.6028 39.3796 36.0447C39.6475 36.6751 39.8918 37.3685 40.0887 37.9437C40.1124 38.0067 40.136 38.0697 40.1518 38.1328C40.2542 38.4401 40.3409 38.7158 40.4039 38.9049C40.4118 38.9207 40.4118 38.9365 40.4197 38.9443Z" fill="url(#paint4_linear_60_415)"/>
<path d="M36.2278 38.9759C36.1412 38.9522 36.0545 38.9207 35.9599 38.8892C35.6211 38.771 35.3532 38.6292 35.1799 38.5425L35.172 38.5346L35.0932 38.4795C34.581 38.1328 34.2501 37.5733 34.2028 36.9509C34.1556 36.3048 34.061 35.6586 33.9271 35.0204C33.5567 33.2082 33.0918 31.4195 32.5403 29.6545L32.6191 29.6467C33.2731 31.2777 33.9271 32.9324 34.5259 34.4531C34.6992 34.8943 34.8647 35.3198 35.0223 35.7217C35.5029 36.9824 35.9205 38.1013 36.2278 38.9759Z" fill="#A12930"/>
<path d="M20.942 31.2776C20.7371 32.3334 20.5795 33.2159 20.5244 33.4444C20.4377 33.7911 20.3668 35.3748 20.3274 36.5174C20.2958 37.2738 19.894 37.9672 19.2558 38.3611L18.7594 38.6684C18.5309 38.763 18.2787 38.8575 18.0187 38.9363C17.869 38.9836 17.7193 39.023 17.5696 39.0545C17.672 38.7866 17.7902 38.4636 17.932 38.0932C18.0029 37.8884 18.0896 37.6677 18.1684 37.4314C18.5624 36.3992 19.043 35.1069 19.5709 33.7044C19.7049 33.3656 19.8388 33.0189 19.9728 32.6722C20.1461 32.2388 20.3116 31.7976 20.485 31.3564L20.942 31.2776Z" fill="#A12930"/>
</g>
<defs>
<filter id="filter0_d_60_415" x="0.625732" y="0.195496" width="48.3743" height="52.609" filterUnits="userSpaceOnUse" color-interpolation-filters="sRGB">
<feFlood flood-opacity="0" result="BackgroundImageFix"/>
<feColorMatrix in="SourceAlpha" type="matrix" values="0 0 0 0 0 0 0 0 0 0 0 0 0 0 0 0 0 0 127 0" result="hardAlpha"/>
<feOffset dy="4"/>
<feGaussianBlur stdDeviation="3.5"/>
<feComposite in2="hardAlpha" operator="out"/>
<feColorMatrix type="matrix" values="0 0 0 0 0.65098 0 0 0 0 0.133333 0 0 0 0 0.141176 0 0 0 0.23 0"/>
<feBlend mode="normal" in2="BackgroundImageFix" result="effect1_dropShadow_60_415"/>
<feBlend mode="normal" in="SourceGraphic" in2="effect1_dropShadow_60_415" result="shape"/>
</filter>
<linearGradient id="paint0_linear_60_415" x1="33.1589" y1="5.40962" x2="25.7459" y2="43.2732" gradientUnits="userSpaceOnUse">
<stop offset="0.457" stop-color="#CB2123"/>
<stop offset="1" stop-color="#752425"/>
</linearGradient>
<linearGradient id="paint1_linear_60_415" x1="24.9233" y1="23.9001" x2="25.3252" y2="14.2439" gradientUnits="userSpaceOnUse">
<stop offset="0.1" stop-color="#B75E5A"/>
<stop offset="0.949" stop-color="#6C272D"/>
</linearGradient>
<linearGradient id="paint2_linear_60_415" x1="31.8493" y1="27.3568" x2="19.3771" y2="31.8835" gradientUnits="userSpaceOnUse">
<stop stop-color="#A32424"/>
<stop offset="1" stop-color="#752425"/>
</linearGradient>
<linearGradient id="paint3_linear_60_415" x1="15.5493" y1="39.4619" x2="18.7208" y2="30.2446" gradientUnits="userSpaceOnUse">
<stop offset="0.343" stop-color="#D77670"/>
<stop offset="0.949" stop-color="#A62224"/>
</linearGradient>
<linearGradient id="paint4_linear_60_415" x1="39.5419" y1="40.1775" x2="33.0398" y2="28.2733" gradientUnits="userSpaceOnUse">
<stop offset="0.343" stop-color="#D77670"/>
<stop offset="0.949" stop-color="#A62224"/>
</linearGradient>
</defs>
</svg>
