<svg width="82" height="82" viewBox="0 0 82 82" fill="none" xmlns="http://www.w3.org/2000/svg">
<path opacity="0.9" fill-rule="evenodd" clip-rule="evenodd" d="M11.2178 24.9336L2.50751 26.0749L8.13841 32.7912L0 36.0835L7.12661 41.1756L0.0439914 46.3555L8.22639 49.56L2.68348 56.3201L11.3938 57.3737L7.6985 65.3191L16.4088 64.1777L14.7811 72.7816L22.9195 69.4893L23.5354 78.2687L30.618 73.045L33.3455 81.3854L38.9324 74.5814L43.6395 82L47.3348 74.0107L53.7575 79.9807L55.3852 71.3769L63.0837 75.591L62.4678 66.8116L71.0021 68.9625L68.2307 60.666L77.029 60.6221L72.2779 53.2473L80.7682 51.0086L74.3455 45.0385L82 40.7805L74.3015 36.6103L80.6803 30.5964L72.1459 28.4454L76.809 21.0268L68.0547 21.0707L70.7382 12.7302L62.2478 14.9689L62.7318 6.2334L55.0772 10.4914L53.3616 1.88758L47.0268 7.9015L43.2436 0L38.5805 7.41863L32.9496 0.702355L30.2661 9.04283L23.1395 3.95075L22.6556 12.6863L14.4732 9.4818L16.1448 18.0857L7.43455 17.0321L11.2178 24.9336Z" fill="url(#paint0_linear_60_484)"/>
<defs>
<linearGradient id="paint0_linear_60_484" x1="84.499" y1="5.14941" x2="11.9165" y2="64.749" gradientUnits="userSpaceOnUse">
<stop stop-color="#FF9021"/>
<stop offset="0.5269" stop-color="#FF2127"/>
<stop offset="1" stop-color="#D61658"/>
</linearGradient>
</defs>
</svg>
