<svg width="475.45625px" height="86px" xmlns="http://www.w3.org/2000/svg" viewBox="12.271874999999994 32 475.45625 86" preserveAspectRatio="xMidYMid"><defs><filter id="editing-extrude-glow"><feFlood flood-color="#ffffff" result="flood-1"></feFlood><feMorphology operator="erode" radius="1" in="SourceAlpha" result="erode"></feMorphology><feComposite operator="in" in="flood-1" in2="erode" result="comp1"></feComposite><feConvolveMatrix order="2,2" divisor="1" in="comp1" result="convolve" kernelMatrix="0 0 1 1"></feConvolveMatrix><feOffset dx="-2" dy="0" in="convolve" result="extrude"></feOffset><feComposite operator="in" in="flood-1" in2="extrude" result="comp-extrude"></feComposite><feFlood flood-color="#ffffff" result="flood-2"></feFlood><feComposite operator="in" in="flood-2" in2="SourceAlpha" result="comp2"></feComposite><feMorphology operator="dilate" radius="1" in="comp2" result="dilate"></feMorphology><feOffset dx="-3" dy="0" in="dilate" result="offset"></feOffset><feGaussianBlur in="offset" stdDeviation="5.8" result="blur"></feGaussianBlur><feComponentTransfer in="blur" result="shadow"><feFuncA type="linear" slope="0.8" intercept="-0.2"></feFuncA></feComponentTransfer><feMerge><feMergeNode in="shadow"></feMergeNode><feMergeNode in="comp-extrude"></feMergeNode><feMergeNode in="SourceGraphic"></feMergeNode></feMerge></filter></defs><g filter="url(#editing-extrude-glow)"><g transform="translate(80.60000085830688, 93.20000076293945)"><path d="M14.16 0L14.32-2.04L14.32-2.04Q13.36-0.84 11.90-0.20L11.90-0.20L11.90-0.20Q10.44 0.44 8.96 0.44L8.96 0.44L8.96 0.44Q1.44 0.44 1.44-6.88L1.44-6.88L1.44-20.04L3.68-20.04L3.68-6.60L3.68-6.60Q3.68-4.04 5.10-2.80L5.10-2.80L5.10-2.80Q6.52-1.56 8.96-1.56L8.96-1.56L8.96-1.56Q11.36-1.56 12.74-2.78L12.74-2.78L12.74-2.78Q14.12-4 14.12-6.60L14.12-6.60L14.12-20.04L16.36-20.04L16.36 0L14.16 0ZM21 8.40L21-20.04L23.24-20.04L23.04-18L23.04-18Q24.12-19.16 25.58-19.76L25.58-19.76L25.58-19.76Q27.04-20.36 28.48-20.36L28.48-20.36L28.48-20.36Q32.20-20.36 34.14-18.20L34.14-18.20L34.14-18.20Q36.08-16.04 36.08-12.60L36.08-12.60L36.08-7.04L36.08-7.04Q36.08-3.40 34.04-1.46L34.04-1.46L34.04-1.46Q32 0.48 28.64 0.48L28.64 0.48L28.64 0.48Q26.92 0.48 25.60 0L25.60 0L25.60 0Q24.28-0.48 23.24-1.68L23.24-1.68L23.24 7.52L21 8.40ZM33.84-12.76L33.84-12.76Q33.84-15.68 32.30-17L32.30-17L32.30-17Q30.76-18.32 28.64-18.32L28.64-18.32L28.64-18.32Q26.48-18.32 24.92-17.02L24.92-17.02L24.92-17.02Q23.36-15.72 23.24-12.96L23.24-12.96L23.24-6.64L23.24-6.64Q23.24-4.04 24.72-2.80L24.72-2.80L24.72-2.80Q26.20-1.56 28.64-1.56L28.64-1.56L28.64-1.56Q30.84-1.56 32.34-2.86L32.34-2.86L32.34-2.86Q33.84-4.16 33.84-6.64L33.84-6.64L33.84-12.76ZM40.52 0L40.52-28L42.76-28L42.76 0L40.52 0ZM64-7.36L64-7.36Q64-4 62.16-1.80L62.16-1.80L62.16-1.80Q60.32 0.40 56.60 0.40L56.60 0.40L56.60 0.40Q52.88 0.40 50.98-1.82L50.98-1.82L50.98-1.82Q49.08-4.04 49.08-7.36L49.08-7.36L49.08-12.64L49.08-12.64Q49.08-16.44 51.02-18.46L51.02-18.46L51.02-18.46Q52.96-20.48 56.60-20.48L56.60-20.48L56.60-20.48Q60.08-20.48 62.04-18.38L62.04-18.38L62.04-18.38Q64-16.28 64-12.64L64-12.64L64-7.36ZM61.76-12.64L61.76-12.64Q61.76-15.64 60.38-17.04L60.38-17.04L60.38-17.04Q59-18.44 56.60-18.44L56.60-18.44L56.60-18.44Q54.12-18.44 52.72-17.04L52.72-17.04L52.72-17.04Q51.32-15.64 51.32-12.64L51.32-12.64L51.32-6.96L51.32-6.96Q51.32-4.56 52.74-3.08L52.74-3.08L52.74-3.08Q54.16-1.60 56.60-1.60L56.60-1.60L56.60-1.60Q59.08-1.60 60.42-3.06L60.42-3.06L60.42-3.06Q61.76-4.52 61.76-6.96L61.76-6.96L61.76-12.64ZM82.20 0L82.20 0Q77.88 0.44 75.96 0.44L75.96 0.44L75.96 0.44Q71.76 0.44 69.28-1.12L69.28-1.12L69.28-1.12Q66.80-2.68 66.80-6.76L66.80-6.76L66.80-10.08L66.80-10.08Q66.80-14.04 69.56-15.40L69.56-15.40L69.56-15.40Q70.88-16.08 72.92-16.08L72.92-16.08L72.92-16.08Q74.80-16.08 76.72-15.46L76.72-15.46L76.72-15.46Q78.64-14.84 79.96-13.84L79.96-13.84L79.96-13.84Q79.96-16.04 78.68-17.34L78.68-17.34L78.68-17.34Q77.40-18.64 73.76-18.64L73.76-18.64L73.88-20.36L73.88-20.36Q77.72-20.36 79.54-19.14L79.54-19.14L79.54-19.14Q81.36-17.92 81.78-16.24L81.78-16.24L81.78-16.24Q82.20-14.56 82.20-11.92L82.20-11.92L82.20 0ZM79.96-12.12L79.96-12.12Q78.32-12.88 76.46-13.44L76.46-13.44L76.46-13.44Q74.60-14 73.04-14L73.04-14L73.04-14Q69-14 69-9.96L69-9.96L69-6.48L69-6.48Q69-3.88 70.80-2.70L70.80-2.70L70.80-2.70Q72.60-1.52 75.92-1.52L75.92-1.52L75.92-1.52Q77.64-1.52 79.96-1.84L79.96-1.84L79.96-12.12ZM86.76-13.84L86.76-13.84Q86.76-18.04 90.16-19.60L90.16-19.60L90.16-19.60Q91.80-20.36 94.08-20.36L94.08-20.36L94.08-20.36Q95.56-20.36 96.94-20L96.94-20L96.94-20Q98.32-19.64 99.28-18.96L99.28-18.96L99.28-28L101.52-28L101.52 0L99.32 0.20L99.32 0.20Q96.72 0.48 95.24 0.48L95.24 0.48L95.24 0.48Q93.76 0.48 92.46 0.20L92.46 0.20L92.46 0.20Q91.16-0.08 89.88-0.72L89.88-0.72L89.88-0.72Q88.44-1.44 87.60-2.84L87.60-2.84L87.60-2.84Q86.76-4.24 86.76-6.28L86.76-6.28L86.76-13.84ZM99.28-17L99.28-17Q98.20-17.60 96.80-17.98L96.80-17.98L96.80-17.98Q95.40-18.36 94.04-18.36L94.04-18.36L94.04-18.36Q91.80-18.36 90.38-17.26L90.38-17.26L90.38-17.26Q88.96-16.16 88.96-13.72L88.96-13.72L88.96-6.24L88.96-6.24Q88.96-1.56 95.40-1.56L95.40-1.56L95.40-1.56Q96.92-1.56 99.28-1.92L99.28-1.92L99.28-17ZM125.64 6.68L125.64 6.68Q128.32 5.68 128.32 2.52L128.32 2.52L128.32-1.96L128.32-1.96Q127.56-0.68 126.04-0.10L126.04-0.10L126.04-0.10Q124.52 0.48 122.76 0.48L122.76 0.48L122.76 0.48Q119.24 0.48 117.34-1.42L117.34-1.42L117.34-1.42Q115.44-3.32 115.44-7.04L115.44-7.04L115.44-20.04L117.60-20.04L117.60-6.64L117.60-6.64Q117.60-4.08 119-2.82L119-2.82L119-2.82Q120.40-1.56 122.76-1.56L122.76-1.56L122.76-1.56Q125.24-1.56 126.76-2.80L126.76-2.80L126.76-2.80Q128.28-4.04 128.28-6.64L128.28-6.64L128.28-14.52L128.28-14.52Q128.28-16.44 128.40-17.38L128.40-17.38L128.40-17.38Q128.52-18.32 129.14-19.14L129.14-19.14L129.14-19.14Q129.76-19.96 131.20-20.40L131.20-20.40L131.80-18.88L131.80-18.88Q130.44-18.28 130.44-16.08L130.44-16.08L130.44 2.44L130.44 2.44Q130.44 4.88 129.48 6.28L129.48 6.28L129.48 6.28Q128.52 7.68 126.24 8.40L126.24 8.40L125.64 6.68ZM151.20-7.36L151.20-7.36Q151.20-4 149.36-1.80L149.36-1.80L149.36-1.80Q147.52 0.40 143.80 0.40L143.80 0.40L143.80 0.40Q140.08 0.40 138.18-1.82L138.18-1.82L138.18-1.82Q136.28-4.04 136.28-7.36L136.28-7.36L136.28-12.64L136.28-12.64Q136.28-16.44 138.22-18.46L138.22-18.46L138.22-18.46Q140.16-20.48 143.80-20.48L143.80-20.48L143.80-20.48Q147.28-20.48 149.24-18.38L149.24-18.38L149.24-18.38Q151.20-16.28 151.20-12.64L151.20-12.64L151.20-7.36ZM148.96-12.64L148.96-12.64Q148.96-15.64 147.58-17.04L147.58-17.04L147.58-17.04Q146.20-18.44 143.80-18.44L143.80-18.44L143.80-18.44Q141.32-18.44 139.92-17.04L139.92-17.04L139.92-17.04Q138.52-15.64 138.52-12.64L138.52-12.64L138.52-6.96L138.52-6.96Q138.52-4.56 139.94-3.08L139.94-3.08L139.94-3.08Q141.36-1.60 143.80-1.60L143.80-1.60L143.80-1.60Q146.28-1.60 147.62-3.06L147.62-3.06L147.62-3.06Q148.96-4.52 148.96-6.96L148.96-6.96L148.96-12.64ZM166.68 0L166.84-2.04L166.84-2.04Q165.88-0.84 164.42-0.20L164.42-0.20L164.42-0.20Q162.96 0.44 161.48 0.44L161.48 0.44L161.48 0.44Q153.96 0.44 153.96-6.88L153.96-6.88L153.96-20.04L156.20-20.04L156.20-6.60L156.20-6.60Q156.20-4.04 157.62-2.80L157.62-2.80L157.62-2.80Q159.04-1.56 161.48-1.56L161.48-1.56L161.48-1.56Q163.88-1.56 165.26-2.78L165.26-2.78L165.26-2.78Q166.64-4 166.64-6.60L166.64-6.60L166.64-20.04L168.88-20.04L168.88 0L166.68 0ZM172.84 0L172.84-20.04L175.08-20.04L174.96-18.64L174.96-18.64Q176.84-20.40 179.88-20.40L179.88-20.40L179.88-20.40Q180.96-20.40 182.84-20.04L182.84-20.04L182.24-18L182.24-18Q180.96-18.40 179.56-18.40L179.56-18.40L179.56-18.40Q177.72-18.40 176.40-17.72L176.40-17.72L176.40-17.72Q175.08-17.04 175.08-15.68L175.08-15.68L175.08 0L172.84 0ZM197.96 0L197.96-28L200.20-28L200.20 0L197.96 0ZM221.44-7.36L221.44-7.36Q221.44-4 219.60-1.80L219.60-1.80L219.60-1.80Q217.76 0.40 214.04 0.40L214.04 0.40L214.04 0.40Q210.32 0.40 208.42-1.82L208.42-1.82L208.42-1.82Q206.52-4.04 206.52-7.36L206.52-7.36L206.52-12.64L206.52-12.64Q206.52-16.44 208.46-18.46L208.46-18.46L208.46-18.46Q210.40-20.48 214.04-20.48L214.04-20.48L214.04-20.48Q217.52-20.48 219.48-18.38L219.48-18.38L219.48-18.38Q221.44-16.28 221.44-12.64L221.44-12.64L221.44-7.36ZM219.20-12.64L219.20-12.64Q219.20-15.64 217.82-17.04L217.82-17.04L217.82-17.04Q216.44-18.44 214.04-18.44L214.04-18.44L214.04-18.44Q211.56-18.44 210.16-17.04L210.16-17.04L210.16-17.04Q208.76-15.64 208.76-12.64L208.76-12.64L208.76-6.96L208.76-6.96Q208.76-4.56 210.18-3.08L210.18-3.08L210.18-3.08Q211.60-1.60 214.04-1.60L214.04-1.60L214.04-1.60Q216.52-1.60 217.86-3.06L217.86-3.06L217.86-3.06Q219.20-4.52 219.20-6.96L219.20-6.96L219.20-12.64ZM234.44 6.68L234.44 6.68Q237.08 5.68 237.08 2.52L237.08 2.52L237.08-2.44L237.08-2.44Q235.40 0.48 231.68 0.48L231.68 0.48L231.68 0.48Q228.16 0.48 226.20-1.44L226.20-1.44L226.20-1.44Q224.24-3.36 224.24-7.04L224.24-7.04L224.24-13L224.24-13Q224.24-16.52 226.30-18.46L226.30-18.46L226.30-18.46Q228.36-20.40 231.84-20.40L231.84-20.40L231.84-20.40Q235.56-20.40 237.24-17.72L237.24-17.72L237.08-20.04L239.32-20.04L239.32 2.56L239.32 2.56Q239.32 4.96 238.32 6.32L238.32 6.32L238.32 6.32Q237.32 7.68 235.04 8.40L235.04 8.40L234.44 6.68ZM237.08-13.44L237.08-13.44Q237.08-15.92 235.48-17.14L235.48-17.14L235.48-17.14Q233.88-18.36 231.68-18.36L231.68-18.36L231.68-18.36Q229.56-18.36 228.02-17.06L228.02-17.06L228.02-17.06Q226.48-15.76 226.48-12.80L226.48-12.80L226.48-6.68L226.48-6.68Q226.48-4.16 227.90-2.88L227.90-2.88L227.90-2.88Q229.32-1.60 231.68-1.60L231.68-1.60L231.68-1.60Q233.92-1.60 235.50-2.98L235.50-2.98L235.50-2.98Q237.08-4.36 237.08-6.92L237.08-6.92L237.08-13.44ZM258.72-7.36L258.72-7.36Q258.72-4 256.88-1.80L256.88-1.80L256.88-1.80Q255.04 0.40 251.32 0.40L251.32 0.40L251.32 0.40Q247.60 0.40 245.70-1.82L245.70-1.82L245.70-1.82Q243.80-4.04 243.80-7.36L243.80-7.36L243.80-12.64L243.80-12.64Q243.80-16.44 245.74-18.46L245.74-18.46L245.74-18.46Q247.68-20.48 251.32-20.48L251.32-20.48L251.32-20.48Q254.80-20.48 256.76-18.38L256.76-18.38L256.76-18.38Q258.72-16.28 258.72-12.64L258.72-12.64L258.72-7.36ZM256.48-12.64L256.48-12.64Q256.48-15.64 255.10-17.04L255.10-17.04L255.10-17.04Q253.72-18.44 251.32-18.44L251.32-18.44L251.32-18.44Q248.84-18.44 247.44-17.04L247.44-17.04L247.44-17.04Q246.04-15.64 246.04-12.64L246.04-12.64L246.04-6.96L246.04-6.96Q246.04-4.56 247.46-3.08L247.46-3.08L247.46-3.08Q248.88-1.60 251.32-1.60L251.32-1.60L251.32-1.60Q253.80-1.60 255.14-3.06L255.14-3.06L255.14-3.06Q256.48-4.52 256.48-6.96L256.48-6.96L256.48-12.64ZM286.28 0L286.28-13.72L286.28-13.72Q286.28-16.16 284.86-17.26L284.86-17.26L284.86-17.26Q283.44-18.36 281.20-18.36L281.20-18.36L281.20-18.36Q279.84-18.36 278.44-17.98L278.44-17.98L278.44-17.98Q277.04-17.60 275.96-17L275.96-17L275.96 0L273.72 0L273.72-28L275.96-28L275.96-18.96L275.96-18.96Q276.96-19.64 278.36-20.02L278.36-20.02L278.36-20.02Q279.76-20.40 281.28-20.40L281.28-20.40L281.28-20.40Q283.36-20.40 285.08-19.64L285.08-19.64L285.08-19.64Q286.68-18.92 287.58-17.48L287.58-17.48L287.58-17.48Q288.48-16.04 288.48-13.84L288.48-13.84L288.48 0L286.28 0ZM305.68-1.40L305.68-1.40Q304.24-0.48 302.40 0L302.40 0L302.40 0Q300.56 0.48 298.72 0.48L298.72 0.48L298.72 0.48Q295.76 0.48 294.02-0.98L294.02-0.98L294.02-0.98Q292.28-2.44 292.28-5.36L292.28-5.36L292.28-13.56L292.28-13.56Q292.28-16.80 294.30-18.60L294.30-18.60L294.30-18.60Q296.32-20.40 299.64-20.40L299.64-20.40L299.64-20.40Q302.96-20.40 304.82-18.62L304.82-18.62L304.82-18.62Q306.68-16.84 306.68-13.68L306.68-13.68L306.68-8.48L294.52-7.80L294.52-5.36L294.52-5.36Q294.52-3.44 295.76-2.48L295.76-2.48L295.76-2.48Q297-1.52 299-1.52L299-1.52L299-1.52Q301.80-1.52 304.80-3.12L304.80-3.12L305.68-1.40ZM304.44-13.96L304.44-13.96Q304.44-16.44 302.88-17.46L302.88-17.46L302.88-17.46Q301.32-18.48 299.60-18.48L299.60-18.48L299.60-18.48Q297.40-18.48 295.96-17.28L295.96-17.28L295.96-17.28Q294.52-16.08 294.52-13.52L294.52-13.52L294.52-10L304.44-10.48L304.44-13.96ZM310.68 0L310.68-20.04L312.92-20.04L312.80-18.64L312.80-18.64Q314.68-20.40 317.72-20.40L317.72-20.40L317.72-20.40Q318.80-20.40 320.68-20.04L320.68-20.04L320.08-18L320.08-18Q318.80-18.40 317.40-18.40L317.40-18.40L317.40-18.40Q315.56-18.40 314.24-17.72L314.24-17.72L314.24-17.72Q312.92-17.04 312.92-15.68L312.92-15.68L312.92 0L310.68 0ZM336.36-1.40L336.36-1.40Q334.92-0.48 333.08 0L333.08 0L333.08 0Q331.24 0.48 329.40 0.48L329.40 0.48L329.40 0.48Q326.44 0.48 324.70-0.98L324.70-0.98L324.70-0.98Q322.96-2.44 322.96-5.36L322.96-5.36L322.96-13.56L322.96-13.56Q322.96-16.80 324.98-18.60L324.98-18.60L324.98-18.60Q327-20.40 330.32-20.40L330.32-20.40L330.32-20.40Q333.64-20.40 335.50-18.62L335.50-18.62L335.50-18.62Q337.36-16.84 337.36-13.68L337.36-13.68L337.36-8.48L325.20-7.80L325.20-5.36L325.20-5.36Q325.20-3.44 326.44-2.48L326.44-2.48L326.44-2.48Q327.68-1.52 329.68-1.52L329.68-1.52L329.68-1.52Q332.48-1.52 335.48-3.12L335.48-3.12L336.36-1.40ZM335.12-13.96L335.12-13.96Q335.12-16.44 333.56-17.46L333.56-17.46L333.56-17.46Q332-18.48 330.28-18.48L330.28-18.48L330.28-18.48Q328.08-18.48 326.64-17.28L326.64-17.28L326.64-17.28Q325.20-16.08 325.20-13.52L325.20-13.52L325.20-10L335.12-10.48L335.12-13.96Z" fill="#eb6c6c"></path></g></g><style>text {
  font-size: 64px;
  font-family: Arial Black;
  dominant-baseline: central;
  text-anchor: middle;
}</style></svg>