<svg width="20" height="20" viewBox="0 0 20 20" fill="none" xmlns="http://www.w3.org/2000/svg">
<path d="M11.1996 8.53283L11.1987 1.86623C11.2018 1.68921 11.1696 1.51335 11.1039 1.34892C11.0383 1.18448 10.9406 1.03475 10.8165 0.90848C10.6924 0.782206 10.5444 0.681912 10.3811 0.61345C10.2179 0.544988 10.0426 0.509727 9.86556 0.509728C9.68851 0.509727 9.51324 0.544987 9.34996 0.61345C9.18669 0.681912 9.03869 0.782207 8.91459 0.90848C8.79049 1.03475 8.69279 1.18448 8.62717 1.34892C8.56156 1.51335 8.52935 1.68921 8.53242 1.86623L8.53148 8.53284L1.86582 8.53283C1.6888 8.52976 1.51294 8.56197 1.3485 8.62758C1.18407 8.6932 1.03434 8.7909 0.908068 8.915C0.781795 9.0391 0.681501 9.1871 0.613039 9.35037C0.544576 9.51365 0.509316 9.68892 0.509316 9.86597C0.509316 10.043 0.544576 10.2183 0.613039 10.3816C0.681501 10.5448 0.781795 10.6928 0.908068 10.8169C1.03434 10.941 1.18407 11.0387 1.3485 11.1044C1.51294 11.17 1.6888 11.2022 1.86582 11.1991L8.53148 11.1991L8.53242 17.8657C8.52935 18.0427 8.56156 18.2186 8.62717 18.383C8.69279 18.5475 8.79049 18.6972 8.91459 18.8235C9.03869 18.9497 9.18669 19.05 9.34996 19.1185C9.51324 19.1869 9.68851 19.2222 9.86556 19.2222C10.0426 19.2222 10.2179 19.1869 10.3811 19.1185C10.5444 19.05 10.6924 18.9497 10.8165 18.8235C10.9406 18.6972 11.0383 18.5475 11.1039 18.383C11.1696 18.2186 11.2018 18.0427 11.1987 17.8657L11.1987 11.2L17.8653 11.1991C18.0423 11.2022 18.2182 11.17 18.3826 11.1044C18.547 11.0387 18.6968 10.941 18.823 10.8169C18.9493 10.6928 19.0496 10.5448 19.1181 10.3816C19.1865 10.2183 19.2218 10.043 19.2218 9.86597C19.2218 9.68892 19.1865 9.51365 19.1181 9.35038C19.0496 9.1871 18.9493 9.0391 18.823 8.915C18.6968 8.7909 18.547 8.6932 18.3826 8.62758C18.2182 8.56197 18.0423 8.52976 17.8653 8.53284L11.1987 8.53189L11.1996 8.53283Z" fill="#6523D1"/>
</svg>
