<svg width="167" height="150" viewBox="0 0 167 150" fill="none" xmlns="http://www.w3.org/2000/svg">
<path opacity="0.07" fill-rule="evenodd" clip-rule="evenodd" d="M116.639 19.6765C82.0234 -14.5166 52.5385 1.034 47.408 27.0843C42.2775 53.1345 -5.38224 58.3359 0.502284 89.1051C6.3868 119.874 70.4849 101.605 70.4849 129.49C70.4849 157.374 144.595 156.413 144.595 119.874C144.595 83.3359 151.254 53.8696 116.639 19.6765Z" fill="black"/>
<path fill-rule="evenodd" clip-rule="evenodd" d="M14.1415 33.7791H11.0588V30.6895C11.0588 29.7665 10.3233 29 9.38443 29C8.46902 29 7.73355 29.7665 7.73355 30.6895V33.7791H4.65088C3.73546 33.7791 3 34.5457 3 35.4686C3 36.3916 3.73546 37.1581 4.65088 37.1581H7.73355V40.2478C7.73355 41.1707 8.46902 41.9373 9.38443 41.9373C10.3155 41.9373 11.0588 41.1707 11.0588 40.2478V37.1581H14.1415C15.0569 37.1581 15.7923 36.3916 15.7923 35.4686C15.7923 34.5457 15.049 33.7791 14.1415 33.7791Z" fill="black"/>
<path fill-rule="evenodd" clip-rule="evenodd" d="M150.165 114.779H147.082V111.666C147.082 110.743 146.323 110 145.408 110C144.492 110 143.757 110.743 143.757 111.666V114.779H140.674C139.759 114.779 139 115.522 139 116.445C139 117.392 139.759 118.135 140.674 118.135H143.757V121.248C143.757 122.171 144.492 122.914 145.408 122.914C146.323 122.914 147.082 122.171 147.082 121.248V118.135H150.165C151.08 118.135 151.816 117.392 151.816 116.445C151.816 115.522 151.08 114.779 150.165 114.779Z" fill="black"/>
<path fill-rule="evenodd" clip-rule="evenodd" d="M163.059 36.1792C164.757 36.1792 166.142 34.7948 166.142 33.0896C166.142 31.4001 164.749 30 163.059 30C161.385 30 160 31.4001 160 33.0896C160 34.7948 161.393 36.1792 163.059 36.1792Z" fill="#00A3FF"/>
<path fill-rule="evenodd" clip-rule="evenodd" d="M9.06703 124.179C10.7414 124.179 12.1262 122.795 12.1262 121.09C12.1262 119.377 10.7336 118 9.06703 118C7.36921 118 6 119.384 6 121.09C6 122.795 7.36921 124.179 9.06703 124.179Z" fill="#00A3FF"/>
<path d="M101.432 3.5H34.5C33.19 3.5 32.1204 4.56469 32.1204 5.88583L32 136.614C32 137.927 33.0697 139 34.3796 139H122.62C123.938 139 125 137.927 125 136.614V28" stroke="black" stroke-width="2"/>
<path d="M102.635 4.41163L102.643 4.41969L102.651 4.42757L125.075 25.8449L125.088 25.8573L125.101 25.8692C125.388 26.1244 125.571 26.4963 125.571 26.9178C125.565 27.6873 124.934 28.3142 124.162 28.3142H101.636C100.86 28.3142 100.234 27.6844 100.234 26.9129V15.6573V5.40175C100.234 5.02141 100.309 4.50756 100.469 4.07171C100.64 3.60311 100.822 3.45235 100.881 3.4245C100.927 3.40862 101.125 3.38262 101.546 3.5971C101.939 3.79778 102.342 4.1187 102.635 4.41163Z" stroke="black" stroke-width="2"/>
<path d="M77.1187 65.826H47.09C45.7599 65.826 44.688 64.7544 44.688 63.4247C44.688 62.095 45.7599 61.0234 47.09 61.0234H77.1187C78.441 61.0234 79.5207 62.095 79.5207 63.4247C79.5207 64.7544 78.441 65.826 77.1187 65.826Z" fill="#00A3FF"/>
<path d="M107.14 77.8326H47.09C45.7599 77.8326 44.688 76.7532 44.688 75.4313C44.688 74.1016 45.7599 73.03 47.09 73.03H107.14C108.47 73.03 109.542 74.1016 109.542 75.4313C109.542 76.761 108.47 77.8326 107.14 77.8326Z" fill="#00A3FF"/>
<path d="M107.14 89.839H47.09C45.7599 89.839 44.688 88.7596 44.688 87.4377C44.688 86.108 45.7599 85.0364 47.09 85.0364H107.14C108.47 85.0364 109.542 86.108 109.542 87.4377C109.542 88.7674 108.47 89.839 107.14 89.839Z" fill="#00A3FF"/>
<path d="M107.14 101.846H47.09C45.7599 101.846 44.688 100.774 44.688 99.4443C44.688 98.1224 45.7599 97.043 47.09 97.043H107.14C108.47 97.043 109.542 98.1224 109.542 99.4443C109.542 100.774 108.47 101.846 107.14 101.846Z" fill="#00A3FF"/>
</svg>
