<svg width="161" height="150" viewBox="0 0 161 150" fill="none" xmlns="http://www.w3.org/2000/svg">
<path opacity="0.07" fill-rule="evenodd" clip-rule="evenodd" d="M123.639 19.6765C89.0234 -14.5166 59.5385 1.034 54.408 27.0843C49.2775 53.1345 1.61776 58.3359 7.50228 89.1051C13.3868 119.874 77.4849 101.605 77.4849 129.49C77.4849 157.374 151.595 156.413 151.595 119.874C151.595 83.3359 158.254 53.8696 123.639 19.6765Z" fill="black"/>
<path d="M16.2527 111.251L16.2625 44.0526C16.2625 41.9885 18.1341 40.3232 20.4587 40.3232L156.794 40.3532C159.119 40.3532 160.99 42.0184 160.99 44.0825L160.98 111.281C160.98 113.345 159.109 115.01 156.784 115.01L20.4488 114.98C18.1242 114.98 16.2527 113.315 16.2527 111.251Z" fill="#6B6B6B"/>
<path d="M27.9841 109.137L27.994 45.9671C27.994 43.903 29.8655 42.2378 32.1901 42.2378L139.734 42.2577C142.058 42.2577 143.93 43.923 143.93 45.9871L143.92 109.157C143.92 111.221 142.048 112.886 139.724 112.886L32.1803 112.866C29.8557 112.866 27.9841 111.201 27.9841 109.137Z" fill="white"/>
<path d="M20.9216 70.6666C20.9216 75.3233 20.9216 79.98 20.9315 84.6367C20.9315 84.8262 21.03 85.0156 21.1974 85.1552C21.3747 85.2948 21.6111 85.3646 21.8672 85.3646C22.1135 85.3646 22.3597 85.2849 22.537 85.1552C22.7144 85.0156 22.8129 84.8362 22.803 84.6367C22.803 79.98 22.803 75.3233 22.7932 70.6666C22.7932 70.4772 22.6947 70.2877 22.5272 70.1481C22.3499 70.0085 22.1135 69.9387 21.8574 69.9387C21.6111 69.9387 21.3649 70.0185 21.1876 70.1481C21.0201 70.2877 20.9216 70.4772 20.9216 70.6666Z" fill="white"/>
<path d="M149.879 87.0896L149.889 68.2335C149.889 66.6979 151.051 65.4614 152.489 65.4614C153.928 65.4614 155.09 66.6979 155.09 68.2335L155.08 87.0896C155.08 88.6252 153.918 89.8617 152.48 89.8617C151.041 89.8717 149.879 88.6252 149.879 87.0896Z" fill="white"/>
<path d="M135 145.011C135 147.227 133.2 149 131 149C129.933 149 128.911 148.579 128.178 147.825C127.422 147.072 127 146.053 127 144.989C127 143.925 127.422 142.906 128.178 142.175C128.933 141.421 129.956 141 131 141C133.2 141 135 142.795 135 145.011Z" fill="#00A3FF"/>
<path d="M62 13.5069C62 14.892 60.875 16 59.5 16C58.8333 16 58.1944 15.7368 57.7361 15.2659C57.2639 14.795 57 14.1579 57 13.4931C57 12.8283 57.2639 12.1911 57.7361 11.7341C58.2083 11.2632 58.8472 11 59.5 11C60.875 11 62 12.1219 62 13.5069Z" fill="#00A3FF"/>
<path d="M26.0732 34.0115C25.9944 34.0414 25.9057 34.0714 25.8269 34.1013C22.3006 35.4674 18.7841 37.2523 16.2034 40.1939C15.9473 40.4631 15.7109 40.7523 15.504 41.0514L13.6423 41.7195L14.844 45.2694C15.1001 46.0272 15.5631 46.7152 16.1935 47.1839C17.7597 48.4503 19.779 48.6298 21.5914 48.5899C27.0877 48.5101 32.2984 46.5158 37.0068 43.8235C39.2625 42.4275 41.4689 40.6426 42.5524 38.0201C42.8381 37.0927 42.7691 36.0258 42.3948 35.0884L41.2916 31.7979L39.4102 32.4759C37.6273 31.8477 35.6967 31.9674 33.8843 32.087C31.2051 32.3563 28.6046 33.0941 26.0732 34.0115Z" fill="#333333"/>
<path d="M24.6746 30.7309C21.1483 32.097 17.6318 33.8719 15.0511 36.8235C14.2434 37.681 13.5736 38.748 13.4849 40.0144C13.3175 41.4303 13.8986 42.9759 15.0412 43.8235C16.6074 45.0899 18.6168 45.2693 20.4391 45.2295C25.9354 45.1497 31.1461 43.1554 35.8545 40.4631C38.1102 39.0671 40.3166 37.2822 41.4001 34.6597C41.9517 32.8847 41.1735 30.5514 39.4793 29.7038C37.3911 28.4275 34.9581 28.587 32.7222 28.7366C29.9641 29.0058 27.2849 29.7736 24.6746 30.7309Z" fill="#333333"/>
<path d="M24.714 30.5214C21.3354 31.8277 17.9568 33.5328 15.4746 36.3348C14.6964 37.1425 14.0562 38.1596 13.9675 39.3562C13.8001 40.6924 14.3517 42.1582 15.4352 42.9459C16.9324 44.1325 18.8532 44.3021 20.5967 44.2422C25.8566 44.1425 30.8506 42.228 35.3718 39.6653C37.529 38.3391 39.6566 36.6439 40.7007 34.1511C41.2326 32.4659 40.5037 30.2721 38.8883 29.4744C36.8986 28.2778 34.574 28.4374 32.4266 28.587C29.7868 28.8562 27.2159 29.604 24.714 30.5214Z" fill="#666666"/>
<path d="M22.1727 22.7336C22.0939 22.7635 22.0151 22.7934 21.9363 22.8233C18.5478 24.1495 15.1791 25.9145 12.7658 28.9658C12.5294 29.245 12.3029 29.5342 12.1157 29.8632L10.323 30.5014L13.5538 39.7849C13.8296 40.6025 14.3024 41.3604 14.9427 41.8789C16.5187 43.2849 18.4887 43.5541 20.2618 43.5741C25.6202 43.6937 30.6339 41.7592 35.1354 39.0769C37.2827 37.6709 39.371 35.8561 40.3363 33.094C40.5825 32.1168 40.4742 30.98 40.0703 29.9629L36.938 20.9587L35.1256 21.6068C33.3624 20.8689 31.481 20.9288 29.7179 20.9886C27.1174 21.1681 24.6057 21.8561 22.1727 22.7336Z" fill="#333333"/>
<path d="M20.6952 19.1838C17.3067 20.51 13.938 22.275 11.5247 25.3263C10.7662 26.2038 10.1555 27.3206 10.1161 28.6667C10.0078 30.1724 12.559 37.302 13.7016 38.2394C15.2776 39.6454 17.2476 39.9146 19.0206 39.9345C24.3791 40.0542 29.3928 38.1197 33.8943 35.4374C36.0416 34.0314 38.1298 32.2166 39.0952 29.4545C39.568 27.5798 36.7902 19.6126 35.1059 18.6453C33.0176 17.2095 30.6536 17.2793 28.4767 17.359C25.7877 17.5385 23.1971 18.2664 20.6952 19.1838Z" fill="#333333"/>
<path d="M26.0733 33.7721C25.9945 33.802 25.9157 33.8319 25.8369 33.8619C22.4484 35.1881 19.0797 36.953 16.6664 40.0043C16.1246 40.6325 15.6518 41.3903 15.4253 42.2579C16.9127 43.3348 18.6758 43.5641 20.2814 43.5841C25.6399 43.7037 30.6536 41.7693 35.1551 39.0869C37.3024 37.6809 39.3906 35.8661 40.3559 33.104C40.5923 32.1567 40.4938 31.0399 40.1195 30.0527L39.5384 30.5015L39.4005 32.8348C37.5388 31.9174 35.5097 31.9772 33.6283 32.047C31.018 32.2066 28.5062 32.8946 26.0733 33.7721Z" fill="#333333"/>
<path d="M20.6952 19.1838C17.3067 20.51 13.938 22.275 11.5247 25.3263C10.7662 26.2038 10.1555 27.3206 10.1161 28.6667C10.0078 30.1724 12.559 37.302 13.7016 38.2394C15.2776 39.6454 17.2476 39.9146 19.0206 39.9345C24.3791 40.0542 29.3928 38.1197 33.8943 35.4374C36.0416 34.0314 38.1298 32.2166 39.0952 29.4545C39.568 27.5798 36.7902 19.6126 35.1059 18.6453C33.0176 17.2095 30.6536 17.2793 28.4767 17.359C25.7877 17.5385 23.1971 18.2664 20.6952 19.1838Z" fill="#333333"/>
<path d="M18.4296 11.2964L1.71392 32.2066L0 32.4858L0.453105 33.7821L28.4373 39.5955L46.4137 17.1098L45.9507 15.8135L44.6308 16.7408L18.4296 11.2964Z" fill="#1A1A1A"/>
<path d="M17.9666 10L45.9507 15.8134L27.9842 38.2991L0 32.4858L17.9666 10Z" fill="#333333"/>
<path d="M24.1526 23.7209C24.2708 24.04 23.8374 24.4887 23.1873 24.728C22.8721 24.8377 22.5569 24.8875 22.3008 24.8576C22.0447 24.8277 21.8673 24.728 21.8082 24.5685C21.69 24.2494 22.1235 23.8007 22.7736 23.5613C23.4138 23.332 24.0344 23.4018 24.1526 23.7209Z" fill="#FFCC00"/>
<path d="M22.7537 24C22.7143 24 22.6651 24.01 22.6257 24.0299C17.1293 26.8419 11.6428 29.6439 8.93402 31.2792C7.58455 32.0969 6.91475 32.6154 6.58969 33.104C6.43209 33.3533 6.36314 33.6026 6.37299 33.8319C6.38284 34.0613 6.46164 34.2607 6.53059 34.4601C6.81625 35.2578 7.22995 36.3447 7.64366 37.4516C7.69291 37.6011 7.86036 37.6809 8.00811 37.6211C8.15586 37.5613 8.22481 37.4017 8.16571 37.2521C7.74216 36.1453 7.32845 35.0484 7.05265 34.2707C6.9837 34.0712 6.93445 33.9217 6.9246 33.802C6.91475 33.6823 6.93445 33.5726 7.0428 33.4131C7.2595 33.084 7.87021 32.5655 9.19997 31.7578C11.8595 30.1425 17.3657 27.3305 22.8621 24.5285C23.1477 24.4088 23.0492 24 22.7537 24Z" fill="#FFCC00"/>
<path d="M9.19026 37.8106C9.34786 38.2693 9.03266 38.7978 8.48105 38.9972C7.92945 39.1966 7.34829 38.9872 7.19069 38.5286C7.11189 38.3092 7.14144 38.0599 7.27934 37.8405C7.40739 37.6212 7.63394 37.4417 7.89989 37.342C8.16585 37.2422 8.4515 37.2422 8.6879 37.332C8.92431 37.4217 9.11146 37.5912 9.19026 37.8106Z" fill="#FFCC00"/>
<path d="M7.90959 40.0143C7.88004 41.2408 8.07705 43.4046 8.62865 44.5115C9.18026 45.6283 10.0766 45.6981 10.7267 45.4588C11.3768 45.2195 11.7807 44.6611 11.6526 43.7237C11.5246 42.7864 10.8745 41.4801 10.2638 40.5029C9.65306 39.5257 9.08176 38.8676 8.6582 38.6881C8.2248 38.5086 7.94899 38.7978 7.90959 40.0143Z" fill="#FFCC00"/>
<path d="M86.7401 45.01C84.8981 45.01 83.1645 45.9573 81.6082 47.6325C80.0519 49.2978 78.6728 51.6909 77.5204 54.6325C75.2056 60.5157 73.7773 68.6225 73.7773 77.567C73.7773 86.5114 75.2056 94.6183 77.5204 100.501C78.6827 103.443 80.0617 105.836 81.6082 107.501C83.1645 109.167 84.8981 110.124 86.7401 110.124C88.5821 110.124 90.3157 109.177 91.872 107.501C93.4283 105.836 94.8073 103.443 95.9598 100.501C98.2746 94.6183 99.7028 86.5114 99.7028 77.567C99.7028 68.6225 98.2746 60.5157 95.9598 54.6325C94.7975 51.6909 93.4185 49.2978 91.872 47.6325C90.3157 45.9573 88.5722 45.01 86.7401 45.01ZM86.7401 45.5186C88.4146 45.5186 90.0202 46.3761 91.5075 47.9815C92.9949 49.577 94.3542 51.9203 95.4968 54.822C97.7821 60.6254 99.2005 68.6724 99.2005 77.567C99.2005 86.4616 97.7821 94.5086 95.4968 100.312C94.3542 103.214 92.9949 105.557 91.5075 107.152C90.0202 108.758 88.4146 109.615 86.7401 109.615C85.0656 109.615 83.46 108.758 81.9726 107.152C80.4853 105.557 79.126 103.214 77.9833 100.312C75.6981 94.5086 74.2797 86.4616 74.2797 77.567C74.2797 68.6724 75.6981 60.6254 77.9833 54.822C79.126 51.9203 80.4853 49.577 81.9726 47.9815C83.46 46.3761 85.0656 45.5186 86.7401 45.5186Z" fill="#00A3FF"/>
<path d="M104.017 52.7279C101.752 52.7977 99.1117 53.4957 96.2355 54.7521C90.483 57.2549 83.8244 61.9615 77.5696 68.2934C71.3246 74.6153 66.6655 81.3561 64.1931 87.1794C62.952 90.0911 62.2625 92.7635 62.1935 95.0569C62.1246 97.3504 62.6959 99.2649 63.9961 100.581C65.2963 101.897 67.1875 102.466 69.4531 102.406C71.7186 102.336 74.3584 101.638 77.2347 100.382C82.9871 97.8789 89.6458 93.1723 95.9006 86.8404C102.146 80.5185 106.805 73.7678 109.277 67.9444C110.518 65.0327 111.208 62.3504 111.277 60.0669C111.346 57.7735 110.774 55.8589 109.474 54.5427C108.174 53.2265 106.283 52.6581 104.017 52.7279ZM104.037 53.2364C106.204 53.1666 107.947 53.7151 109.119 54.9116C110.301 56.1082 110.833 57.8632 110.774 60.0569C110.705 62.2507 110.036 64.8831 108.814 67.7549C106.371 73.4886 101.761 80.1994 95.546 86.4814C89.3306 92.7735 82.7113 97.4501 77.0376 99.9131C74.2008 101.15 71.6102 101.828 69.4334 101.897C67.2663 101.967 65.5229 101.419 64.3507 100.222C63.1687 99.0256 62.6368 97.2706 62.6959 95.0769C62.7648 92.8831 63.4347 90.2507 64.6561 87.3789C67.0989 81.6353 71.7087 74.9344 77.9242 68.6424C84.1396 62.3504 90.7589 57.6837 96.4325 55.2108C99.2693 53.9843 101.86 53.2963 104.037 53.2364Z" fill="#00A3FF"/>
<path d="M69.4531 52.728C67.1875 52.6582 65.2963 53.2366 63.9961 54.5528C62.6959 55.8691 62.1246 57.7836 62.1935 60.077C62.2625 62.3705 62.952 65.0429 64.1931 67.9545C66.6655 73.7779 71.3147 80.5186 77.5696 86.8505C83.8244 93.1725 90.483 97.879 96.2355 100.382C99.1117 101.638 101.761 102.336 104.017 102.406C106.283 102.476 108.174 101.898 109.474 100.581C110.774 99.2651 111.336 97.3505 111.277 95.0571C111.208 92.7636 110.518 90.0913 109.277 87.1796C106.805 81.3562 102.155 74.6155 95.9006 68.2836C89.6556 61.9617 82.9871 57.2451 77.2347 54.7423C74.3584 53.4958 71.7186 52.7978 69.4531 52.728ZM69.4334 53.2366C71.6004 53.3064 74.2008 53.9844 77.0376 55.2209C82.7113 57.6938 89.3306 62.3605 95.546 68.6525C101.761 74.9446 106.371 81.6454 108.814 87.389C110.036 90.2608 110.705 92.8833 110.774 95.087C110.843 97.2807 110.301 99.0357 109.119 100.232C107.937 101.429 106.204 101.967 104.037 101.908C101.87 101.838 99.2693 101.16 96.4325 99.9232C90.7589 97.4503 84.1396 92.7736 77.9242 86.4816C71.7087 80.1995 67.0989 73.4887 64.6561 67.7451C63.4347 64.8833 62.7648 62.2508 62.6959 60.0571C62.6269 57.8634 63.1687 56.0984 64.3507 54.9118C65.5327 53.7152 67.2663 53.1668 69.4334 53.2366Z" fill="#00A3FF"/>
<path d="M86.7399 64.4443C77.9044 64.4443 69.8963 65.8902 64.0847 68.2335C61.1789 69.4101 58.8149 70.8062 57.1699 72.3717C55.525 73.9472 54.5793 75.7022 54.5793 77.5668C54.5793 79.4315 55.5151 81.1865 57.1699 82.762C58.8149 84.3375 61.1789 85.7335 64.0847 86.9002C69.8963 89.2435 77.9044 90.6894 86.7399 90.6894C95.5755 90.6894 103.584 89.2435 109.395 86.9002C112.301 85.7235 114.665 84.3275 116.31 82.762C117.955 81.1865 118.901 79.4315 118.901 77.5668C118.901 75.7022 117.965 73.9472 116.31 72.3717C114.665 70.7962 112.301 69.4002 109.395 68.2335C103.574 65.8902 95.5755 64.4443 86.7399 64.4443ZM86.7399 64.9529C95.5262 64.9529 103.475 66.3888 109.208 68.7022C112.074 69.8589 114.389 71.2349 115.965 72.7406C117.551 74.2463 118.398 75.8717 118.398 77.5668C118.398 79.262 117.551 80.8874 115.965 82.3931C114.379 83.8988 112.074 85.2748 109.208 86.4315C103.475 88.7449 95.5262 90.1808 86.7399 90.1808C77.9536 90.1808 70.0046 88.7449 64.2719 86.4315C61.4055 85.2748 59.0907 83.8988 57.5147 82.3931C55.9288 80.8874 55.0817 79.262 55.0817 77.5668C55.0817 75.8717 55.9288 74.2463 57.5147 72.7406C59.1005 71.2349 61.4055 69.8589 64.2719 68.7022C70.0046 66.3888 77.9536 64.9529 86.7399 64.9529Z" fill="#00A3FF"/>
<path d="M111.513 54.9815C111.513 55.5698 111.277 56.1382 110.873 56.557C110.459 56.9758 109.898 57.2051 109.316 57.2051C108.105 57.2051 107.12 56.208 107.12 54.9815C107.12 53.755 108.105 52.7578 109.316 52.7578C109.898 52.7578 110.459 52.9872 110.873 53.406C111.286 53.8248 111.513 54.3931 111.513 54.9815Z" fill="#6523D1"/>
<path d="M99.88 61.4829C99.88 62.0712 99.6534 62.6396 99.2397 63.0584C98.826 63.4772 98.2645 63.7066 97.6834 63.7066C96.4718 63.7066 95.4868 62.7094 95.4868 61.4829C95.4868 60.2564 96.4718 59.2593 97.6834 59.2593C98.2645 59.2593 98.826 59.4886 99.2397 59.9074C99.6534 60.3362 99.88 60.8946 99.88 61.4829Z" fill="#FFDD55"/>
<path d="M83.6077 90.3904C83.6077 91.6169 82.6227 92.614 81.4112 92.614C80.83 92.614 80.2686 92.3747 79.8549 91.9659C79.4412 91.5471 79.2146 90.9787 79.2146 90.3904C79.2146 89.8021 79.4412 89.2337 79.8549 88.8149C80.2686 88.3961 80.83 88.1667 81.4112 88.1667C82.6326 88.1667 83.6077 89.1639 83.6077 90.3904Z" fill="#6C5353"/>
<path d="M57.4163 78.0357C57.4163 78.624 57.1799 79.1924 56.7761 79.6112C56.3624 80.03 55.8009 80.2593 55.2198 80.2593C54.0082 80.2593 53.0232 79.2622 53.0232 78.0357C53.0232 76.8092 54.0082 75.812 55.2198 75.812C55.8009 75.812 56.3624 76.0414 56.7761 76.4602C57.1898 76.879 57.4163 77.4473 57.4163 78.0357Z" fill="black"/>
<path fill-rule="evenodd" clip-rule="evenodd" d="M39.7118 127.701H37.3065V125.29C37.3065 124.575 36.7143 124 36 124C35.2857 124 34.7118 124.575 34.7118 125.29V127.701H32.3065C31.5922 127.701 31 128.276 31 128.991C31 129.724 31.5922 130.299 32.3065 130.299H34.7118V132.71C34.7118 133.425 35.2857 134 36 134C36.7143 134 37.3065 133.425 37.3065 132.71V130.299H39.7118C40.4261 130.299 41 129.724 41 128.991C41 128.276 40.4261 127.701 39.7118 127.701Z" fill="black"/>
<path fill-rule="evenodd" clip-rule="evenodd" d="M143.712 21.7008H141.306V19.2901C141.306 18.5754 140.714 18 140 18C139.286 18 138.712 18.5754 138.712 19.2901V21.7008H136.306C135.592 21.7008 135 22.2762 135 22.9909C135 23.7238 135.592 24.2992 136.306 24.2992H138.712V26.7099C138.712 27.4246 139.286 28 140 28C140.714 28 141.306 27.4246 141.306 26.7099V24.2992H143.712C144.426 24.2992 145 23.7238 145 22.9909C145 22.2762 144.426 21.7008 143.712 21.7008Z" fill="black"/>
</svg>
