<svg width="146" height="150" viewBox="0 0 146 150" fill="none" xmlns="http://www.w3.org/2000/svg">
<path opacity="0.07" fill-rule="evenodd" clip-rule="evenodd" d="M116.639 19.6765C82.0234 -14.5166 52.5385 1.034 47.408 27.0843C42.2775 53.1345 -5.38224 58.3359 0.502284 89.1051C6.3868 119.874 70.4849 101.605 70.4849 129.49C70.4849 157.374 144.595 156.413 144.595 119.874C144.595 83.3359 151.254 53.8696 116.639 19.6765Z" fill="black"/>
<path d="M38.4534 16.5659H37.4534V17.5659V43.5408V44.5408H38.4534L114.564 44.5408H115.564V43.5408V17.5659V16.5659H114.564L38.4534 16.5659Z" stroke="black" stroke-width="2"/>
<path d="M92.3087 95.593L93.1323 95.0197L92.5562 94.1981L39.0904 17.9566L38.2631 16.7768L37.4473 17.9647L21.7108 40.8792L21.318 41.4512L21.7164 42.0194L69.54 110.227L70.1122 111.043L70.9301 110.474L92.3087 95.593Z" fill="white" stroke="black" stroke-width="2"/>
<path d="M60.4435 94.1984L59.8678 95.0199L60.6912 95.593L82.0698 110.474L82.8877 111.043L83.4599 110.227L131.284 42.0194L131.682 41.4505L131.288 40.8782L115.514 17.9637L114.697 16.7778L113.871 17.9569L60.4435 94.1984Z" fill="white" stroke="black" stroke-width="2"/>
<path d="M77.2013 74.0452L77.2013 74.0451L77.19 74.0517C76.7787 74.289 76.2313 74.3019 75.7559 74.0428C75.7548 74.0422 75.7536 74.0415 75.7524 74.0409L72.963 72.4794C71.5631 71.6776 69.8241 71.9451 68.7394 73.1323C68.7387 73.133 68.738 73.1338 68.7373 73.1345L66.5691 75.485C66.1856 75.8593 65.6782 76.0145 65.1693 75.9241L62.0341 75.3143C60.4782 74.9964 58.8609 75.7906 58.2027 77.2583L56.8694 80.1437C56.628 80.615 56.1831 80.933 55.6843 81.0031L52.5149 81.3837C50.9404 81.5504 49.6514 82.832 49.4835 84.4073L49.1016 87.5661C49.0275 88.0906 48.6901 88.5423 48.264 88.7334L48.264 88.7334L48.256 88.737L45.339 90.0759L45.3313 90.0795L45.3235 90.0832C43.8956 90.7684 43.0691 92.3183 43.3941 93.898L44.0072 97.0298L44.0102 97.045L44.0136 97.06C44.12 97.5268 43.952 98.0495 43.5797 98.3994L41.2041 100.576L41.1976 100.582L41.1912 100.588C40.0524 101.669 39.7905 103.387 40.5392 104.773L40.5435 104.781L40.5479 104.788L42.1172 107.573C42.1178 107.574 42.1184 107.575 42.1191 107.577C42.3778 108.048 42.3648 108.59 42.128 108.998L42.1279 108.998L42.1215 109.009L40.5505 111.797C39.7439 113.196 40.0142 114.933 41.2056 116.015C41.2065 116.016 41.2073 116.017 41.2082 116.017L43.5665 118.178C43.9417 118.56 44.0958 119.064 44.0058 119.567L43.3941 122.692C43.0738 124.249 43.8748 125.862 45.3444 126.516L48.2399 127.846C48.7145 128.087 49.0318 128.53 49.1016 129.024L49.4835 132.183C49.6514 133.758 50.9404 135.04 52.515 135.206L55.6843 135.587C56.2144 135.661 56.6675 135.999 56.8583 136.422L56.8582 136.422L56.8619 136.43L58.2053 139.337L58.2089 139.345L58.2126 139.353C58.9014 140.779 60.455 141.598 62.0337 141.276C62.0358 141.275 62.038 141.275 62.0401 141.274L65.1763 140.665L65.1914 140.662L65.2064 140.658C65.6791 140.551 66.2061 140.721 66.5572 141.092C66.5581 141.093 66.559 141.094 66.5599 141.095L68.7411 143.46L68.747 143.466L68.7531 143.472C69.837 144.607 71.5561 144.866 72.9428 144.122L72.9506 144.117L72.9583 144.113L75.7524 142.549C75.7536 142.548 75.7547 142.548 75.7558 142.547C76.2313 142.288 76.7786 142.301 77.19 142.538L77.19 142.538L77.2013 142.545L79.9932 144.107C79.995 144.109 79.9968 144.11 79.9986 144.111C81.3986 144.912 83.1377 144.645 84.2224 143.457C84.223 143.457 84.2236 143.456 84.2243 143.455L86.3925 141.105C86.7759 140.731 87.2834 140.575 87.7922 140.666C87.7941 140.666 87.7959 140.667 87.7978 140.667L90.9215 141.274C90.9236 141.275 90.9258 141.275 90.9279 141.276C92.4836 141.593 94.1007 140.799 94.7589 139.332C94.7599 139.329 94.7608 139.327 94.7618 139.325L96.0921 136.446C96.3336 135.975 96.7785 135.657 97.2773 135.587L100.447 135.206C102.021 135.04 103.31 133.758 103.478 132.183L103.86 129.024C103.934 128.499 104.271 128.048 104.698 127.857L104.698 127.857L104.706 127.853L107.623 126.514L107.63 126.51L107.638 126.507C109.066 125.821 109.893 124.272 109.567 122.692C109.567 122.69 109.567 122.688 109.566 122.686L108.954 119.56L108.951 119.545L108.948 119.53C108.842 119.063 109.01 118.54 109.382 118.191C109.383 118.19 109.384 118.189 109.385 118.188L111.757 116.014L111.764 116.008L111.77 116.002C112.909 114.921 113.171 113.203 112.422 111.817L112.418 111.809L112.414 111.802L110.844 109.017C110.844 109.016 110.843 109.014 110.842 109.013C110.584 108.542 110.597 108 110.834 107.592L110.834 107.592L110.84 107.581L112.408 104.798C112.409 104.797 112.41 104.795 112.411 104.793C113.218 103.394 112.947 101.657 111.756 100.575C111.755 100.574 111.754 100.573 111.753 100.572L109.395 98.4114C109.02 98.0295 108.866 97.5261 108.956 97.0227C108.956 97.0208 108.956 97.019 108.957 97.0172L109.566 93.9041C109.567 93.9021 109.567 93.9001 109.567 93.8981C109.888 92.341 109.087 90.7281 107.617 90.0733C107.615 90.0723 107.613 90.0714 107.61 90.0704L104.722 88.7444C104.247 88.5029 103.93 88.0596 103.86 87.566L103.478 84.4073C103.31 82.832 102.021 81.5504 100.447 81.3837L97.2773 81.0031C96.7472 80.9287 96.2941 80.5905 96.1033 80.168L96.1033 80.168L96.0997 80.16L94.7563 77.2527L94.7527 77.2449L94.749 77.2372C94.0601 75.8112 92.5063 74.9917 90.9274 75.3143L87.7852 75.9254L87.7701 75.9284L87.7552 75.9318C87.2825 76.0388 86.7555 75.8692 86.4044 75.498C86.4035 75.497 86.4025 75.496 86.4016 75.4951L84.2205 73.1304L84.2145 73.1239L84.2084 73.1176C83.1245 71.9832 81.4055 71.724 80.0188 72.4682L80.011 72.4724L80.0032 72.4768L77.2013 74.0452Z" fill="white" stroke="black" stroke-width="2"/>
<path d="M76.5 136.207C91.9935 136.207 104.559 123.688 104.559 108.238C104.559 92.7876 91.9935 80.2683 76.5 80.2683C61.0066 80.2683 48.4409 92.7876 48.4409 108.238C48.4409 123.688 61.0066 136.207 76.5 136.207Z" fill="#00A3FF" stroke="black" stroke-width="2"/>
</svg>
